#!OML:ASF E:/inclinewalkrobotboard/Project1/Captureday1/Session1/subject1.ASF
:FULLY-SPECIFIED
:DEGREES
276
root 0 0 0 -0.3845737493436202 -2.03412778665728 -3.8874584730875155
lowerback 16.537181195943926 1.0935947694621815 -0.12503557830984702
upperback 0.6530807954530272 1.4316245866634656 0.32392891480834207
thorax -8.643308612472184 0.6775639047799621 0.05021270241048248
lowerneck -7.47097743768669 -3.2565839338077867 1.329365588214925
upperneck -6.118960528472378 -4.221583475497155 1.7137528135643931
head -0.774165122540996 -2.19166893765836 0.23100702850747376
rclavicle -3.8021350397528445E-16 1.852824244456906E-17
rhumerus 12.105832651713925 0.5382593275455019 -39.421632231631
rradius 118.8476895381993
rwrist -30.832486692299604
rhand -11.662221434888192 -36.668330909708956
rfingers 7.125019999999964
rthumb 14.42017433594852 -66.08076569473062
lclavicle -3.931333575702053E-16 -4.530145950215343E-16
lhumerus -43.468608232422795 -0.3830296711657979 83.17117332037282
lradius 45.4436181460785
lwrist 1.8750473569376136
lhand -15.44340494324453 -12.651087414165755
lfingers 7.125019999999937
lthumb 10.691237183695122 16.50503810142925
rfemur -2.7259877038955898 1.0137988887746576 5.449917854533851
rtibia 8.162726700086157
rfoot -1.5358853543811937 -1.3291618726088053
rtoes 0.7806803118501247
lfemur -6.486479398256391 -3.5899879790422964 -12.175663965903992
ltibia 27.350203719712805
lfoot -19.377272606613296 8.066152811513883
ltoes -43.62450599921819
277
root 0 0 0 -0.3845229951900824 -2.0342010149263188 -3.8875506995929205
lowerback 16.537889668810926 1.0934367164244518 -0.12515739190874609
upperback 0.6525749860699792 1.4313916101276365 0.3238457650587182
thorax -8.644213210662475 0.6774425929184423 0.050188528051800074
lowerneck -7.471137080193386 -3.2564461631763097 1.329918762779609
upperneck -6.123712738678133 -4.2212950484047225 1.7132041072222244
head -0.7757200587267326 -2.1916021501579492 0.2308167297047747
rclavicle -3.8022855864314724E-16 1.8551459142375183E-17
rhumerus 12.106272995593763 0.5388231095697034 -39.421104856752244
rradius 118.84921463828846
rwrist -30.833146534933228
rhand -11.661992729240211 -36.669798987807496
rfingers 7.125019999999964
rthumb 14.420390155876348 -66.08218866597718
lclavicle -3.9291896904790565E-16 -4.528628428878866E-16
lhumerus -43.470475789983425 -0.38293261099346565 83.17146828405977
lradius 45.446145051155476
lwrist 1.8740277352037615
lhand -15.441312761221038 -12.657684332207918
lfingers 7.125019999999937
lthumb 10.693226750727508 16.498696646520877
rfemur -2.7252572572223466 1.0135182855843263 5.4484401238665985
rtibia 8.160557374760314
rfoot -1.5354591056250664 -1.3287930156014025
rtoes 0.7804639686593939
lfemur -6.486179833345549 -3.590198232346129 -12.175027768499156
ltibia 27.349603498640764
lfoot -19.37844662786324 8.067171596982549
ltoes -43.627900572303034
278
root 0 0 0 -0.3844725494261517 -2.034273743531604 -3.8876427008473344
lowerback 16.53859222416449 1.093280218851994 -0.12527793263647213
upperback 0.6520722056044695 1.43116092406247 0.3237630438735879
thorax -8.64511141987025 0.6773224390778031 0.05016404358823057
lowerneck -7.471296154149091 -3.2563096854240463 1.3304676424812438
upperneck -6.1284298232792835 -4.221009337241473 1.712660083656633
head -0.7772634323264409 -2.191536053244211 0.2306280257695673
rclavicle -3.802434184445553E-16 1.8574547774849635E-17
rhumerus 12.10670880775838 0.5393847126978848 -39.42058180430965
rradius 118.8507299406609
rwrist -30.83380228682518
rhand -11.661764741454558 -36.67126060491428
rfingers 7.125019999999964
rthumb 14.42060529975274 -66.08360535485691
lclavicle -3.9270564634502704E-16 -4.527118141697835E-16
lhumerus -43.47233376943892 -0.3828359474978674 83.17176180425143
lradius 45.44865878437259
lwrist 1.873013176677354
lhand -15.439231318819928 -12.664247486253995
lfingers 7.125019999999937
lthumb 10.695206144372776 16.492387677019188
rfemur -2.724530652181344 1.013239148582858 5.446970136713039
rtibia 8.15839944831245
rfoot -1.5350350894027431 -1.3284260962678807
rtoes 0.780248755359159
lfemur -6.485881721084169 -3.5904074627151723 -12.174394702304225
ltibia 27.349006204032875
lfoot -19.37961490316437 8.068185389812683
ltoes -43.63127847977542
279
root 0 0 0 -0.3844223974290213 -2.034345980304618 -3.887734478235399
lowerback 16.539288960200814 1.0931252350189182 -0.12539723375510936
upperback 0.6515723873935642 1.4309324667795171 0.32368074404622016
thorax -8.646003364128385 0.6772034128597322 0.05013926446998951
lowerneck -7.471454652025555 -3.2561744593672266 1.3310123312310602
upperneck -6.1331124932820025 -4.220726265573448 1.7121206340049568
head -0.7787954787638816 -2.191470623326805 0.23044087956932877
rclavicle -3.8025807901276093E-16 1.8597511562157783E-17
rhumerus 12.107140007652752 0.5399442639964782 -39.420063098854385
rradius 118.8522355504156
rwrist -30.834453995823257
rhand -11.6615374080262 -36.672716055347486
rfingers 7.125019999999964
rthumb 14.42081982754937 -66.08501604661427
lclavicle -3.9249335701450515E-16 -4.525614861263915E-16
lhumerus -43.47418252059328 -0.38273967965158573 83.17205392228489
lradius 45.45115984632378
lwrist 1.8720035192516662
lhand -15.437160231431092 -12.670778089746868
lfingers 7.125019999999937
lthumb 10.697175726767208 16.48611002310384
rfemur -2.723807659993973 1.0129613864995504 5.445507415643851
rtibia 8.156252227614694
rfoot -1.5346131652022779 -1.3280609975279116
rtoes 0.7800345985018453
lfemur -6.485584969507837 -3.5906157302752573 -12.173764598963182
ltibia 27.34841166003582
lfoot -19.38077775009846 8.06919446300198
ltoes -43.634640625660026
